<?xml version="1.0" encoding="UTF-8"?>
<svg width="22px" height="16px" viewBox="0 0 22 16" version="1.1" xmlns="http://www.w3.org/2000/svg" xmlns:xlink="http://www.w3.org/1999/xlink">
    <title>Shape Copy 5</title>
    <g id="Pagina-Evento" stroke="none" stroke-width="1" fill="none" fill-rule="evenodd">
        <g id="Pagina-Evento-Copy-11" transform="translate(-860.000000, -1007.000000)">
            <g id="detelder-logo"></g>
            <path d="M873.933014,1015 C876.122488,1015 877.913876,1013.2 877.913876,1011 C877.913876,1008.8 876.122488,1007 873.933014,1007 C871.743541,1007 869.952153,1008.8 869.952153,1011 C869.952153,1013.2 871.743541,1015 873.933014,1015 Z M864.976077,1013 L864.976077,1010 L862.985646,1010 L862.985646,1013 L860,1013 L860,1015 L862.985646,1015 L862.985646,1018 L864.976077,1018 L864.976077,1015 L867.961722,1015 L867.961722,1013 L864.976077,1013 Z M873.933014,1017 C871.245933,1017 865.971292,1018.3 865.971292,1021 L865.971292,1023 L881.894737,1023 L881.894737,1021 C881.894737,1018.3 876.620096,1017 873.933014,1017 Z" id="Shape-Copy-5" fill="#007A55" fill-rule="nonzero"></path>
        </g>
        <g id="detelder-logo-bianco"></g>
        <g id="location_pin_007"></g>
        <g id="location_pin_007"></g>
    </g>
</svg>